<svg width="177" height="48" viewBox="0 0 177 48" fill="none" xmlns="http://www.w3.org/2000/svg">
<g clip-path="url(#clip0_534_1538)">
<mask id="mask0_534_1538" style="mask-type:luminance" maskUnits="userSpaceOnUse" x="0" y="8" width="32" height="32">
<path d="M32 8H0V40H32V8Z" fill="white"/>
</mask>
<g mask="url(#mask0_534_1538)">
<path fill-rule="evenodd" clip-rule="evenodd" d="M16 11.52C16 9.57596 14.424 8 12.48 8H3.52C1.57596 8 0 9.57596 0 11.52V20.5951C0 22.5392 1.57596 24.115 3.52 24.115H12.48C14.424 24.115 16 25.691 16 27.635V36.48C16 38.424 17.576 40 19.52 40H28.48C30.424 40 32 38.424 32 36.48V27.4048C32 25.4608 30.424 23.8849 28.48 23.8849H19.52C17.576 23.8849 16 22.3089 16 20.3649V11.52Z" fill="white"/>
</g>
</g>
<path d="M52.75 34H46.4659V13.6364H53.0284C55.0038 13.6364 56.6941 14.044 58.0994 14.8594C59.5047 15.6681 60.5819 16.8314 61.331 18.3494C62.08 19.8608 62.4545 21.6705 62.4545 23.7784C62.4545 25.8996 62.0767 27.7259 61.321 29.2571C60.5653 30.7817 59.465 31.955 58.0199 32.777C56.5748 33.5923 54.8182 34 52.75 34ZM48.9318 31.8125H52.5909C54.2746 31.8125 55.67 31.4877 56.777 30.8381C57.884 30.1884 58.7093 29.2637 59.2528 28.0639C59.7964 26.8641 60.0682 25.4356 60.0682 23.7784C60.0682 22.1345 59.7997 20.7192 59.2628 19.5327C58.7259 18.3395 57.9238 17.4247 56.8565 16.7884C55.7893 16.1454 54.4602 15.8239 52.8693 15.8239H48.9318V31.8125ZM72.1973 34.3182C70.8185 34.3182 69.6087 33.9901 68.568 33.3338C67.5339 32.6776 66.7252 31.7595 66.1419 30.5795C65.5652 29.3996 65.2768 28.0208 65.2768 26.4432C65.2768 24.8523 65.5652 23.4635 66.1419 22.277C66.7252 21.0904 67.5339 20.169 68.568 19.5128C69.6087 18.8565 70.8185 18.5284 72.1973 18.5284C73.5761 18.5284 74.7825 18.8565 75.8166 19.5128C76.8573 20.169 77.666 21.0904 78.2427 22.277C78.8261 23.4635 79.1177 24.8523 79.1177 26.4432C79.1177 28.0208 78.8261 29.3996 78.2427 30.5795C77.666 31.7595 76.8573 32.6776 75.8166 33.3338C74.7825 33.9901 73.5761 34.3182 72.1973 34.3182ZM72.1973 32.2102C73.2446 32.2102 74.1064 31.9418 74.7825 31.4048C75.4586 30.8679 75.9591 30.1619 76.2839 29.2869C76.6087 28.4119 76.7711 27.464 76.7711 26.4432C76.7711 25.4223 76.6087 24.4711 76.2839 23.5895C75.9591 22.7079 75.4586 21.9953 74.7825 21.4517C74.1064 20.9081 73.2446 20.6364 72.1973 20.6364C71.1499 20.6364 70.2882 20.9081 69.612 21.4517C68.9359 21.9953 68.4354 22.7079 68.1106 23.5895C67.7858 24.4711 67.6234 25.4223 67.6234 26.4432C67.6234 27.464 67.7858 28.4119 68.1106 29.2869C68.4354 30.1619 68.9359 30.8679 69.612 31.4048C70.2882 31.9418 71.1499 32.2102 72.1973 32.2102ZM82.4198 34V18.7273H84.6868V21.1136H84.8857C85.2038 20.2983 85.7176 19.6652 86.4269 19.2145C87.1361 18.7571 87.9879 18.5284 88.9823 18.5284C89.9898 18.5284 90.8284 18.7571 91.4979 19.2145C92.174 19.6652 92.701 20.2983 93.0788 21.1136H93.2379C93.629 20.3248 94.2157 19.6984 94.9979 19.2344C95.7801 18.7637 96.7181 18.5284 97.8118 18.5284C99.1773 18.5284 100.294 18.956 101.163 19.8111C102.031 20.6596 102.465 21.982 102.465 23.7784V34H100.119V23.7784C100.119 22.6515 99.8104 21.8461 99.1939 21.3622C98.5774 20.8783 97.8516 20.6364 97.0163 20.6364C95.9425 20.6364 95.1106 20.9612 94.5206 21.6108C93.9306 22.2538 93.6357 23.0691 93.6357 24.0568V34H91.2493V23.5398C91.2493 22.6714 90.9676 21.9721 90.4041 21.4418C89.8407 20.9048 89.1148 20.6364 88.2266 20.6364C87.6167 20.6364 87.0467 20.7988 86.5163 21.1236C85.9927 21.4484 85.5684 21.8991 85.2436 22.4759C84.9254 23.0459 84.7663 23.7055 84.7663 24.4545V34H82.4198ZM106.476 34V18.7273H108.822V34H106.476ZM107.669 16.1818C107.211 16.1818 106.817 16.026 106.486 15.7145C106.161 15.4029 105.998 15.0284 105.998 14.5909C105.998 14.1534 106.161 13.7789 106.486 13.4673C106.817 13.1558 107.211 13 107.669 13C108.126 13 108.517 13.1558 108.842 13.4673C109.174 13.7789 109.339 14.1534 109.339 14.5909C109.339 15.0284 109.174 15.4029 108.842 15.7145C108.517 16.026 108.126 16.1818 107.669 16.1818ZM115.187 24.8125V34H112.84V18.7273H115.107V21.1136H115.306C115.664 20.3381 116.208 19.715 116.937 19.2443C117.666 18.767 118.607 18.5284 119.761 18.5284C120.795 18.5284 121.7 18.7405 122.475 19.1648C123.251 19.5824 123.854 20.2188 124.285 21.0739C124.716 21.9223 124.931 22.9962 124.931 24.2955V34H122.585V24.4545C122.585 23.2547 122.273 22.3201 121.65 21.6506C121.027 20.9744 120.172 20.6364 119.085 20.6364C118.335 20.6364 117.666 20.7988 117.076 21.1236C116.493 21.4484 116.032 21.9223 115.694 22.5455C115.356 23.1686 115.187 23.9242 115.187 24.8125ZM135.104 40.0455C133.97 40.0455 132.996 39.8996 132.181 39.608C131.365 39.3229 130.686 38.9451 130.142 38.4744C129.605 38.0104 129.178 37.5133 128.86 36.983L130.729 35.6705C130.941 35.9489 131.209 36.267 131.534 36.625C131.859 36.9896 132.303 37.3045 132.867 37.5696C133.437 37.8414 134.183 37.9773 135.104 37.9773C136.337 37.9773 137.354 37.679 138.156 37.0824C138.959 36.4858 139.36 35.5511 139.36 34.2784V31.1761H139.161C138.988 31.4545 138.743 31.7992 138.425 32.2102C138.113 32.6146 137.663 32.9759 137.073 33.294C136.489 33.6056 135.7 33.7614 134.706 33.7614C133.473 33.7614 132.366 33.4697 131.385 32.8864C130.411 32.303 129.638 31.4545 129.068 30.3409C128.505 29.2273 128.223 27.875 128.223 26.2841C128.223 24.7197 128.498 23.3575 129.049 22.1974C129.599 21.0308 130.364 20.1293 131.345 19.4929C132.326 18.8499 133.46 18.5284 134.746 18.5284C135.74 18.5284 136.529 18.6941 137.112 19.0256C137.702 19.3504 138.153 19.7216 138.465 20.1392C138.783 20.5502 139.028 20.8883 139.2 21.1534H139.439V18.7273H141.706V34.4375C141.706 35.75 141.408 36.8172 140.811 37.6392C140.221 38.4678 139.426 39.0743 138.425 39.4588C137.431 39.8499 136.324 40.0455 135.104 40.0455ZM135.024 31.6534C135.966 31.6534 136.761 31.438 137.411 31.0071C138.06 30.5762 138.554 29.9564 138.892 29.1477C139.23 28.339 139.399 27.3712 139.399 26.2443C139.399 25.1439 139.234 24.1728 138.902 23.331C138.571 22.4891 138.08 21.8295 137.431 21.3523C136.781 20.875 135.979 20.6364 135.024 20.6364C134.03 20.6364 133.201 20.8883 132.539 21.392C131.882 21.8958 131.388 22.572 131.057 23.4205C130.732 24.2689 130.57 25.2102 130.57 26.2443C130.57 27.3049 130.736 28.2429 131.067 29.0582C131.405 29.867 131.902 30.5033 132.558 30.9673C133.221 31.4247 134.043 31.6534 135.024 31.6534ZM151.926 34.3182C150.547 34.3182 149.338 33.9901 148.297 33.3338C147.263 32.6776 146.454 31.7595 145.871 30.5795C145.294 29.3996 145.006 28.0208 145.006 26.4432C145.006 24.8523 145.294 23.4635 145.871 22.277C146.454 21.0904 147.263 20.169 148.297 19.5128C149.338 18.8565 150.547 18.5284 151.926 18.5284C153.305 18.5284 154.511 18.8565 155.545 19.5128C156.586 20.169 157.395 21.0904 157.972 22.277C158.555 23.4635 158.847 24.8523 158.847 26.4432C158.847 28.0208 158.555 29.3996 157.972 30.5795C157.395 31.7595 156.586 32.6776 155.545 33.3338C154.511 33.9901 153.305 34.3182 151.926 34.3182ZM151.926 32.2102C152.974 32.2102 153.835 31.9418 154.511 31.4048C155.188 30.8679 155.688 30.1619 156.013 29.2869C156.338 28.4119 156.5 27.464 156.5 26.4432C156.5 25.4223 156.338 24.4711 156.013 23.5895C155.688 22.7079 155.188 21.9953 154.511 21.4517C153.835 20.9081 152.974 20.6364 151.926 20.6364C150.879 20.6364 150.017 20.9081 149.341 21.4517C148.665 21.9953 148.164 22.7079 147.84 23.5895C147.515 24.4711 147.352 25.4223 147.352 26.4432C147.352 27.464 147.515 28.4119 147.84 29.2869C148.164 30.1619 148.665 30.8679 149.341 31.4048C150.017 31.9418 150.879 32.2102 151.926 32.2102Z" fill="white"/>
<defs>
<clipPath id="clip0_534_1538">
<rect width="32" height="32" fill="white" transform="translate(0 8)"/>
</clipPath>
</defs>
</svg>
