<svg width="177" height="48" viewBox="0 0 177 48" fill="none" xmlns="http://www.w3.org/2000/svg">
<g clip-path="url(#clip0_534_2548)">
<mask id="mask0_534_2548" style="mask-type:luminance" maskUnits="userSpaceOnUse" x="0" y="0" width="48" height="48">
<path d="M48 0H0V48H48V0Z" fill="white"/>
</mask>
<g mask="url(#mask0_534_2548)">
<path fill-rule="evenodd" clip-rule="evenodd" d="M24 5.28C24 2.36394 21.6361 0 18.72 0H5.28C2.36394 0 0 2.36393 0 5.28V18.8927C0 21.8087 2.36394 24.1726 5.28 24.1726H18.72C21.6361 24.1726 24 26.5366 24 29.4526V42.72C24 45.636 26.364 48 29.28 48H42.72C45.636 48 48 45.636 48 42.72V29.1072C48 26.1912 45.636 23.8273 42.72 23.8273H29.28C26.364 23.8273 24 21.4634 24 18.5473V5.28Z" fill="#000080"/>
</g>
</g>
<path d="M68.75 34H62.4659V13.6364H69.0284C71.0038 13.6364 72.6941 14.044 74.0994 14.8594C75.5047 15.6681 76.5819 16.8314 77.331 18.3494C78.08 19.8608 78.4545 21.6705 78.4545 23.7784C78.4545 25.8996 78.0767 27.7259 77.321 29.2571C76.5653 30.7817 75.465 31.955 74.0199 32.777C72.5748 33.5923 70.8182 34 68.75 34ZM64.9318 31.8125H68.5909C70.2746 31.8125 71.67 31.4877 72.777 30.8381C73.884 30.1884 74.7093 29.2637 75.2528 28.0639C75.7964 26.8641 76.0682 25.4356 76.0682 23.7784C76.0682 22.1345 75.7997 20.7192 75.2628 19.5327C74.7259 18.3395 73.9238 17.4247 72.8565 16.7884C71.7893 16.1454 70.4602 15.8239 68.8693 15.8239H64.9318V31.8125ZM88.1973 34.3182C86.8185 34.3182 85.6087 33.9901 84.568 33.3338C83.5339 32.6776 82.7252 31.7595 82.1419 30.5795C81.5652 29.3996 81.2768 28.0208 81.2768 26.4432C81.2768 24.8523 81.5652 23.4635 82.1419 22.277C82.7252 21.0904 83.5339 20.169 84.568 19.5128C85.6087 18.8565 86.8185 18.5284 88.1973 18.5284C89.5761 18.5284 90.7825 18.8565 91.8166 19.5128C92.8573 20.169 93.666 21.0904 94.2427 22.277C94.8261 23.4635 95.1177 24.8523 95.1177 26.4432C95.1177 28.0208 94.8261 29.3996 94.2427 30.5795C93.666 31.7595 92.8573 32.6776 91.8166 33.3338C90.7825 33.9901 89.5761 34.3182 88.1973 34.3182ZM88.1973 32.2102C89.2446 32.2102 90.1064 31.9418 90.7825 31.4048C91.4586 30.8679 91.9591 30.1619 92.2839 29.2869C92.6087 28.4119 92.7711 27.464 92.7711 26.4432C92.7711 25.4223 92.6087 24.4711 92.2839 23.5895C91.9591 22.7079 91.4586 21.9953 90.7825 21.4517C90.1064 20.9081 89.2446 20.6364 88.1973 20.6364C87.1499 20.6364 86.2882 20.9081 85.612 21.4517C84.9359 21.9953 84.4354 22.7079 84.1106 23.5895C83.7858 24.4711 83.6234 25.4223 83.6234 26.4432C83.6234 27.464 83.7858 28.4119 84.1106 29.2869C84.4354 30.1619 84.9359 30.8679 85.612 31.4048C86.2882 31.9418 87.1499 32.2102 88.1973 32.2102ZM98.4198 34V18.7273H100.687V21.1136H100.886C101.204 20.2983 101.718 19.6652 102.427 19.2145C103.136 18.7571 103.988 18.5284 104.982 18.5284C105.99 18.5284 106.828 18.7571 107.498 19.2145C108.174 19.6652 108.701 20.2983 109.079 21.1136H109.238C109.629 20.3248 110.216 19.6984 110.998 19.2344C111.78 18.7637 112.718 18.5284 113.812 18.5284C115.177 18.5284 116.294 18.956 117.163 19.8111C118.031 20.6596 118.465 21.982 118.465 23.7784V34H116.119V23.7784C116.119 22.6515 115.81 21.8461 115.194 21.3622C114.577 20.8783 113.852 20.6364 113.016 20.6364C111.942 20.6364 111.111 20.9612 110.521 21.6108C109.931 22.2538 109.636 23.0691 109.636 24.0568V34H107.249V23.5398C107.249 22.6714 106.968 21.9721 106.404 21.4418C105.841 20.9048 105.115 20.6364 104.227 20.6364C103.617 20.6364 103.047 20.7988 102.516 21.1236C101.993 21.4484 101.568 21.8991 101.244 22.4759C100.925 23.0459 100.766 23.7055 100.766 24.4545V34H98.4198ZM122.476 34V18.7273H124.822V34H122.476ZM123.669 16.1818C123.211 16.1818 122.817 16.026 122.486 15.7145C122.161 15.4029 121.998 15.0284 121.998 14.5909C121.998 14.1534 122.161 13.7789 122.486 13.4673C122.817 13.1558 123.211 13 123.669 13C124.126 13 124.517 13.1558 124.842 13.4673C125.174 13.7789 125.339 14.1534 125.339 14.5909C125.339 15.0284 125.174 15.4029 124.842 15.7145C124.517 16.026 124.126 16.1818 123.669 16.1818ZM131.187 24.8125V34H128.84V18.7273H131.107V21.1136H131.306C131.664 20.3381 132.208 19.715 132.937 19.2443C133.666 18.767 134.607 18.5284 135.761 18.5284C136.795 18.5284 137.7 18.7405 138.475 19.1648C139.251 19.5824 139.854 20.2188 140.285 21.0739C140.716 21.9223 140.931 22.9962 140.931 24.2955V34H138.585V24.4545C138.585 23.2547 138.273 22.3201 137.65 21.6506C137.027 20.9744 136.172 20.6364 135.085 20.6364C134.335 20.6364 133.666 20.7988 133.076 21.1236C132.493 21.4484 132.032 21.9223 131.694 22.5455C131.356 23.1686 131.187 23.9242 131.187 24.8125ZM151.104 40.0455C149.97 40.0455 148.996 39.8996 148.181 39.608C147.365 39.3229 146.686 38.9451 146.142 38.4744C145.605 38.0104 145.178 37.5133 144.86 36.983L146.729 35.6705C146.941 35.9489 147.209 36.267 147.534 36.625C147.859 36.9896 148.303 37.3045 148.867 37.5696C149.437 37.8414 150.183 37.9773 151.104 37.9773C152.337 37.9773 153.354 37.679 154.156 37.0824C154.959 36.4858 155.36 35.5511 155.36 34.2784V31.1761H155.161C154.988 31.4545 154.743 31.7992 154.425 32.2102C154.113 32.6146 153.663 32.9759 153.073 33.294C152.489 33.6056 151.7 33.7614 150.706 33.7614C149.473 33.7614 148.366 33.4697 147.385 32.8864C146.411 32.303 145.638 31.4545 145.068 30.3409C144.505 29.2273 144.223 27.875 144.223 26.2841C144.223 24.7197 144.498 23.3575 145.049 22.1974C145.599 21.0308 146.364 20.1293 147.345 19.4929C148.326 18.8499 149.46 18.5284 150.746 18.5284C151.74 18.5284 152.529 18.6941 153.112 19.0256C153.702 19.3504 154.153 19.7216 154.465 20.1392C154.783 20.5502 155.028 20.8883 155.2 21.1534H155.439V18.7273H157.706V34.4375C157.706 35.75 157.408 36.8172 156.811 37.6392C156.221 38.4678 155.426 39.0743 154.425 39.4588C153.431 39.8499 152.324 40.0455 151.104 40.0455ZM151.024 31.6534C151.966 31.6534 152.761 31.438 153.411 31.0071C154.06 30.5762 154.554 29.9564 154.892 29.1477C155.23 28.339 155.399 27.3712 155.399 26.2443C155.399 25.1439 155.234 24.1728 154.902 23.331C154.571 22.4891 154.08 21.8295 153.431 21.3523C152.781 20.875 151.979 20.6364 151.024 20.6364C150.03 20.6364 149.201 20.8883 148.539 21.392C147.882 21.8958 147.388 22.572 147.057 23.4205C146.732 24.2689 146.57 25.2102 146.57 26.2443C146.57 27.3049 146.736 28.2429 147.067 29.0582C147.405 29.867 147.902 30.5033 148.558 30.9673C149.221 31.4247 150.043 31.6534 151.024 31.6534ZM167.926 34.3182C166.547 34.3182 165.338 33.9901 164.297 33.3338C163.263 32.6776 162.454 31.7595 161.871 30.5795C161.294 29.3996 161.006 28.0208 161.006 26.4432C161.006 24.8523 161.294 23.4635 161.871 22.277C162.454 21.0904 163.263 20.169 164.297 19.5128C165.338 18.8565 166.547 18.5284 167.926 18.5284C169.305 18.5284 170.511 18.8565 171.545 19.5128C172.586 20.169 173.395 21.0904 173.972 22.277C174.555 23.4635 174.847 24.8523 174.847 26.4432C174.847 28.0208 174.555 29.3996 173.972 30.5795C173.395 31.7595 172.586 32.6776 171.545 33.3338C170.511 33.9901 169.305 34.3182 167.926 34.3182ZM167.926 32.2102C168.974 32.2102 169.835 31.9418 170.511 31.4048C171.188 30.8679 171.688 30.1619 172.013 29.2869C172.338 28.4119 172.5 27.464 172.5 26.4432C172.5 25.4223 172.338 24.4711 172.013 23.5895C171.688 22.7079 171.188 21.9953 170.511 21.4517C169.835 20.9081 168.974 20.6364 167.926 20.6364C166.879 20.6364 166.017 20.9081 165.341 21.4517C164.665 21.9953 164.164 22.7079 163.84 23.5895C163.515 24.4711 163.352 25.4223 163.352 26.4432C163.352 27.464 163.515 28.4119 163.84 29.2869C164.164 30.1619 164.665 30.8679 165.341 31.4048C166.017 31.9418 166.879 32.2102 167.926 32.2102Z" fill="#000080"/>
<defs>
<clipPath id="clip0_534_2548">
<rect width="48" height="48" fill="white"/>
</clipPath>
</defs>
</svg>
