<svg width="44" height="44" viewBox="0 0 44 44" fill="none" xmlns="http://www.w3.org/2000/svg">
<path opacity="0.2" d="M22.0003 40.3334C32.1255 40.3334 40.3337 32.1253 40.3337 22.0001C40.3337 11.8749 32.1255 3.66675 22.0003 3.66675C11.8751 3.66675 3.66699 11.8749 3.66699 22.0001C3.66699 32.1253 11.8751 40.3334 22.0003 40.3334Z" fill="#000080"/>
<path d="M19.3966 28.5633C19.03 28.5633 18.6816 28.4166 18.425 28.1599L13.2366 22.9716C12.705 22.4399 12.705 21.5599 13.2366 21.0283C13.7683 20.4966 14.6483 20.4966 15.18 21.0283L19.3966 25.2449L28.82 15.8216C29.3516 15.2899 30.2316 15.2899 30.7633 15.8216C31.295 16.3533 31.295 17.2333 30.7633 17.7649L20.3683 28.1599C20.1116 28.4166 19.7633 28.5633 19.3966 28.5633Z" fill="#000080"/>
</svg>
